<svg width="1512" height="439" viewBox="0 0 1512 439" fill="none" xmlns="http://www.w3.org/2000/svg">
<rect y="228" width="186" height="211" fill="#DCBEA7"/>
<circle cx="255" cy="370" r="69" fill="#D39A72"/>
<path d="M401.979 140.117L370.193 372.364L184.828 228.4L401.979 140.117Z" fill="#F1EBB3"/>
<circle cx="113" cy="115" r="113" fill="#B1BEA1"/>
<rect width="186" height="211" transform="matrix(-1 0 0 1 1512 226)" fill="#DCBEA7"/>
<circle cx="69" cy="69" r="69" transform="matrix(-1 0 0 1 1326 299)" fill="#D39A72"/>
<path d="M1110.02 138.117L1141.81 370.364L1327.17 226.4L1110.02 138.117Z" fill="#F1EBB3"/>
<circle cx="113" cy="113" r="113" transform="matrix(-1 0 0 1 1512 0)" fill="#B1BEA1"/>
<rect x="388" y="242" width="197" height="197" fill="#8DB6FA"/>
<circle cx="617.5" cy="406.5" r="32.5" fill="#EF8E8E"/>
<path d="M695 337L753.89 439H636.11L695 337Z" fill="#F1EBB3"/>
<rect x="755" y="335" width="382" height="104" fill="#8DB6FA"/>
<rect x="988" y="204" width="131" height="131" fill="#EFC3A4"/>
</svg>
